<svg width="578" height="218" viewBox="0 0 578 218" fill="none" xmlns="http://www.w3.org/2000/svg">
<rect width="578" height="218" fill="#212121"/>
<path d="M184.744 84.72C182.272 84.72 180.148 84.312 178.372 83.496C176.596 82.656 175.144 81.564 174.016 80.22C172.888 78.876 172.06 77.412 171.532 75.828C171.004 74.244 170.74 72.696 170.74 71.184V70.392C170.74 68.76 171.016 67.152 171.568 65.568C172.12 63.96 172.948 62.508 174.052 61.212C175.18 59.916 176.584 58.884 178.264 58.116C179.944 57.324 181.912 56.928 184.168 56.928C186.592 56.928 188.728 57.372 190.576 58.26C192.448 59.148 193.948 60.384 195.076 61.968C196.204 63.528 196.864 65.34 197.056 67.404H190.36C190.144 66.204 189.484 65.208 188.38 64.416C187.276 63.6 185.872 63.192 184.168 63.192C182.728 63.192 181.516 63.528 180.532 64.2C179.548 64.848 178.792 65.748 178.264 66.9C177.76 68.028 177.508 69.336 177.508 70.824C177.508 72.312 177.784 73.644 178.336 74.82C178.888 75.996 179.692 76.92 180.748 77.592C181.828 78.264 183.16 78.6 184.744 78.6C186.016 78.6 187.132 78.372 188.092 77.916C189.052 77.46 189.808 76.848 190.36 76.08V74.712H184.024V70.032H198.64V74.712H196.48V78.816C195.376 80.712 193.804 82.176 191.764 83.208C189.748 84.216 187.408 84.72 184.744 84.72ZM203.105 84V57.72H219.737V63.192H209.585V67.908H219.197V73.38H209.585V78.528H219.953V84H203.105ZM230.745 84V63.552H223.545V57.72H244.641V63.552H237.441V84H230.745ZM266.136 84.72C264.072 84.72 262.272 84.348 260.736 83.604C259.2 82.836 258.012 81.804 257.172 80.508C256.356 79.188 255.948 77.688 255.948 76.008H262.428C262.428 76.944 262.752 77.712 263.4 78.312C264.048 78.888 264.96 79.176 266.136 79.176C267.336 79.176 268.248 78.852 268.872 78.204C269.52 77.556 269.844 76.74 269.844 75.756C269.844 74.772 269.52 73.956 268.872 73.308C268.248 72.66 267.336 72.336 266.136 72.336C265.44 72.336 264.816 72.444 264.264 72.66C263.736 72.876 263.28 73.152 262.896 73.488L259.908 68.52L267.18 64.056L266.856 63.48H257.064V57.72H275.352V63.444L268.224 67.764C270.72 68.076 272.688 68.928 274.128 70.32C275.592 71.712 276.324 73.524 276.324 75.756V76.188C276.324 77.844 275.904 79.32 275.064 80.616C274.248 81.888 273.072 82.896 271.536 83.64C270.024 84.36 268.224 84.72 266.136 84.72ZM292.765 84.72C290.629 84.72 288.805 84.384 287.293 83.712C285.781 83.016 284.545 82.08 283.585 80.904C282.625 79.704 281.917 78.336 281.461 76.8C281.005 75.24 280.777 73.608 280.777 71.904V69.816C280.777 67.416 281.209 65.244 282.073 63.3C282.937 61.356 284.257 59.808 286.033 58.656C287.809 57.504 290.053 56.928 292.765 56.928C295.477 56.928 297.709 57.504 299.461 58.656C301.237 59.808 302.557 61.356 303.421 63.3C304.285 65.244 304.717 67.416 304.717 69.816V71.904C304.717 73.608 304.489 75.24 304.033 76.8C303.577 78.336 302.869 79.704 301.909 80.904C300.973 82.08 299.749 83.016 298.237 83.712C296.725 84.384 294.901 84.72 292.765 84.72ZM292.765 78.528C294.541 78.528 295.861 77.904 296.725 76.656C297.589 75.408 298.021 73.488 298.021 70.896C298.021 68.136 297.577 66.156 296.689 64.956C295.801 63.732 294.493 63.12 292.765 63.12C291.013 63.12 289.693 63.732 288.805 64.956C287.917 66.156 287.473 68.112 287.473 70.824C287.473 73.44 287.905 75.384 288.769 76.656C289.657 77.904 290.989 78.528 292.765 78.528ZM314.745 72.264C313.305 72.264 312.093 71.952 311.109 71.328C310.149 70.68 309.417 69.816 308.913 68.736C308.433 67.656 308.193 66.456 308.193 65.136V64.2C308.193 62.088 308.757 60.372 309.885 59.052C311.013 57.732 312.633 57.072 314.745 57.072C316.857 57.072 318.477 57.732 319.605 59.052C320.733 60.372 321.297 62.088 321.297 64.2V65.136C321.297 66.456 321.045 67.656 320.541 68.736C320.061 69.816 319.341 70.68 318.381 71.328C317.421 71.952 316.209 72.264 314.745 72.264ZM316.509 84L325.941 57.72H331.485L322.053 84H316.509ZM314.745 67.944C315.369 67.944 315.825 67.716 316.113 67.26C316.401 66.804 316.545 65.952 316.545 64.704C316.545 63.36 316.389 62.472 316.077 62.04C315.789 61.608 315.345 61.392 314.745 61.392C314.145 61.392 313.689 61.608 313.377 62.04C313.089 62.472 312.945 63.348 312.945 64.668C312.945 65.916 313.089 66.78 313.377 67.26C313.689 67.716 314.145 67.944 314.745 67.944ZM333.105 84.72C331.665 84.72 330.453 84.408 329.469 83.784C328.509 83.136 327.777 82.272 327.273 81.192C326.793 80.112 326.553 78.912 326.553 77.592V76.656C326.553 74.544 327.117 72.828 328.245 71.508C329.373 70.188 330.993 69.528 333.105 69.528C335.217 69.528 336.837 70.188 337.965 71.508C339.093 72.828 339.657 74.544 339.657 76.656V77.592C339.657 78.912 339.405 80.112 338.901 81.192C338.421 82.272 337.701 83.136 336.741 83.784C335.781 84.408 334.569 84.72 333.105 84.72ZM333.105 80.4C333.729 80.4 334.185 80.172 334.473 79.716C334.761 79.26 334.905 78.408 334.905 77.16C334.905 75.816 334.749 74.928 334.437 74.496C334.149 74.064 333.705 73.848 333.105 73.848C332.505 73.848 332.049 74.064 331.737 74.496C331.449 74.928 331.305 75.804 331.305 77.124C331.305 78.372 331.449 79.236 331.737 79.716C332.049 80.172 332.505 80.4 333.105 80.4ZM365.268 84.72C362.868 84.72 360.78 84.312 359.004 83.496C357.228 82.656 355.752 81.564 354.576 80.22C353.4 78.852 352.524 77.376 351.948 75.792C351.372 74.208 351.084 72.672 351.084 71.184V70.392C351.084 68.736 351.384 67.116 351.984 65.532C352.584 63.924 353.484 62.472 354.684 61.176C355.884 59.88 357.36 58.848 359.112 58.08C360.888 57.312 362.94 56.928 365.268 56.928C367.572 56.928 369.6 57.312 371.352 58.08C373.128 58.848 374.616 59.88 375.816 61.176C377.016 62.472 377.916 63.924 378.516 65.532C379.14 67.116 379.452 68.736 379.452 70.392V71.184C379.452 72.672 379.152 74.208 378.552 75.792C377.976 77.376 377.1 78.852 375.924 80.22C374.748 81.564 373.272 82.656 371.496 83.496C369.72 84.312 367.644 84.72 365.268 84.72ZM365.268 78.456C366.804 78.456 368.124 78.12 369.228 77.448C370.332 76.776 371.184 75.864 371.784 74.712C372.384 73.56 372.684 72.264 372.684 70.824C372.684 69.288 372.384 67.956 371.784 66.828C371.184 65.676 370.32 64.788 369.192 64.164C368.088 63.516 366.78 63.192 365.268 63.192C362.988 63.192 361.176 63.9 359.832 65.316C358.512 66.708 357.852 68.544 357.852 70.824C357.852 72.264 358.152 73.56 358.752 74.712C359.352 75.864 360.204 76.776 361.308 77.448C362.412 78.12 363.732 78.456 365.268 78.456ZM384.645 84V69.312H382.485V64.56H384.645V63.984C384.645 59.376 387.309 57.072 392.637 57.072H394.401V61.896H392.493C391.293 61.896 390.693 62.496 390.693 63.696V64.56H397.785V64.2C397.785 59.592 400.449 57.288 405.777 57.288H408.189V62.112H405.633C404.433 62.112 403.833 62.712 403.833 63.912V64.56H408.477V69.312H403.833V84H397.785V69.312H390.693V84H384.645Z" fill="white"/>
<rect opacity="0.15" x="124" y="128" width="330" height="42" rx="8" fill="white"/>
<path d="M171.434 155.068V142.488H176.041C177.163 142.488 178.143 142.652 178.982 142.981C179.82 143.31 180.517 143.757 181.073 144.324C181.639 144.891 182.064 145.542 182.348 146.279C182.631 147.004 182.773 147.769 182.773 148.574V148.948C182.773 149.707 182.631 150.45 182.348 151.175C182.064 151.9 181.639 152.558 181.073 153.147C180.517 153.736 179.82 154.207 178.982 154.558C178.143 154.898 177.163 155.068 176.041 155.068H171.434ZM176.194 145.089H174.222V152.467H176.194C177.361 152.467 178.279 152.127 178.948 151.447C179.616 150.767 179.951 149.872 179.951 148.761C179.951 147.594 179.616 146.693 178.948 146.058C178.279 145.412 177.361 145.089 176.194 145.089ZM188.999 155V142.59H191.787V155H188.999ZM198.859 155V142.59H203.432L208.107 152.739H208.345V142.59H210.963V155H206.356L201.681 144.851H201.443V155H198.859ZM218.001 155V142.59H225.685V144.902H220.721V147.537H225.413V149.849H220.721V152.688H225.804V155H218.001ZM234.368 155L231.308 142.59H234.181L236.493 152.739H236.935L238.72 143.049H241.576L243.633 152.739H244.075L246.081 142.59H248.801L246.081 155H241.763L240.131 147.52L238.601 155H234.368ZM254.807 155V142.59H262.491V144.902H257.527V147.537H262.219V149.849H257.527V152.688H262.61V155H254.807ZM269.15 155V142.59H276.834V144.902H271.87V147.537H276.562V149.849H271.87V152.688H276.953V155H269.15ZM283.494 155V142.59H286.282V148.387L290.855 142.59H294.051L289.818 147.962L295.02 155H291.654L287.37 149.203H286.282V155H283.494ZM300.527 155V142.59H308.211V144.902H303.247V147.537H307.939V149.849H303.247V152.688H308.33V155H300.527ZM314.871 155V142.59H319.444L324.119 152.739H324.357V142.59H326.975V155H322.368L317.693 144.851H317.455V155H314.871ZM334.013 155.068V142.488H338.62C339.742 142.488 340.722 142.652 341.561 142.981C342.399 143.31 343.096 143.757 343.652 144.324C344.218 144.891 344.643 145.542 344.927 146.279C345.21 147.004 345.352 147.769 345.352 148.574V148.948C345.352 149.707 345.21 150.45 344.927 151.175C344.643 151.9 344.218 152.558 343.652 153.147C343.096 153.736 342.399 154.207 341.561 154.558C340.722 154.898 339.742 155.068 338.62 155.068H334.013ZM338.773 145.089H336.801V152.467H338.773C339.94 152.467 340.858 152.127 341.527 151.447C342.195 150.767 342.53 149.872 342.53 148.761C342.53 147.594 342.195 146.693 341.527 146.058C340.858 145.412 339.94 145.089 338.773 145.089ZM355.779 155.323C354.657 155.323 353.705 155.147 352.923 154.796C352.152 154.445 351.569 153.957 351.172 153.334C350.787 152.711 350.594 151.997 350.594 151.192H353.297C353.297 151.668 353.49 152.087 353.875 152.45C354.272 152.801 354.906 152.977 355.779 152.977C356.55 152.977 357.139 152.83 357.547 152.535C357.955 152.229 358.159 151.838 358.159 151.362C358.159 150.965 357.989 150.654 357.649 150.427C357.309 150.189 356.759 150.036 356 149.968L355.065 149.883C353.83 149.781 352.844 149.401 352.107 148.744C351.37 148.075 351.002 147.186 351.002 146.075C351.002 145.282 351.189 144.596 351.563 144.018C351.948 143.44 352.481 142.998 353.161 142.692C353.841 142.375 354.646 142.216 355.575 142.216C356.55 142.216 357.383 142.386 358.074 142.726C358.777 143.066 359.315 143.542 359.689 144.154C360.063 144.755 360.25 145.457 360.25 146.262H357.53C357.53 145.809 357.366 145.412 357.037 145.072C356.708 144.732 356.221 144.562 355.575 144.562C354.952 144.562 354.487 144.715 354.181 145.021C353.875 145.316 353.722 145.667 353.722 146.075C353.722 146.426 353.841 146.732 354.079 146.993C354.328 147.254 354.742 147.407 355.32 147.452L356.272 147.537C357.179 147.616 357.978 147.815 358.669 148.132C359.36 148.438 359.899 148.863 360.284 149.407C360.681 149.94 360.879 150.591 360.879 151.362C360.879 152.155 360.669 152.852 360.25 153.453C359.842 154.042 359.258 154.501 358.499 154.83C357.74 155.159 356.833 155.323 355.779 155.323ZM365.81 155L369.907 142.59H374.412L378.662 155H375.772L374.769 151.923H369.584L368.598 155H365.81ZM370.315 149.611H374.004L372.457 144.868H371.828L370.315 149.611ZM384.531 155V142.59H387.319V152.552H392.181V155H384.531ZM398.261 155V142.59H405.945V144.902H400.981V147.537H405.673V149.849H400.981V152.688H406.064V155H398.261Z" fill="white"/>
<path d="M224.862 120.252C223.938 120.252 223.159 120.075 222.524 119.72C221.899 119.356 221.423 118.852 221.096 118.208C220.779 117.555 220.62 116.799 220.62 115.94V109.78H221.992V116.108C221.992 116.967 222.24 117.662 222.734 118.194C223.229 118.726 223.938 118.992 224.862 118.992C225.777 118.992 226.482 118.731 226.976 118.208C227.471 117.676 227.718 116.976 227.718 116.108V109.78H229.09V115.94C229.09 116.799 228.932 117.555 228.614 118.208C228.297 118.852 227.826 119.356 227.2 119.72C226.575 120.075 225.796 120.252 224.862 120.252ZM235.601 120.252C234.752 120.252 234.029 120.112 233.431 119.832C232.834 119.552 232.377 119.165 232.059 118.67C231.742 118.175 231.583 117.615 231.583 116.99H232.955C232.955 117.298 233.035 117.606 233.193 117.914C233.361 118.222 233.637 118.479 234.019 118.684C234.411 118.889 234.939 118.992 235.601 118.992C236.217 118.992 236.721 118.903 237.113 118.726C237.505 118.539 237.795 118.301 237.981 118.012C238.168 117.713 238.261 117.391 238.261 117.046C238.261 116.626 238.079 116.281 237.715 116.01C237.351 115.73 236.819 115.557 236.119 115.492L234.985 115.394C234.08 115.319 233.357 115.039 232.815 114.554C232.274 114.069 232.003 113.429 232.003 112.636C232.003 112.011 232.153 111.465 232.451 110.998C232.759 110.531 233.184 110.167 233.725 109.906C234.267 109.635 234.897 109.5 235.615 109.5C236.325 109.5 236.95 109.631 237.491 109.892C238.033 110.153 238.453 110.522 238.751 110.998C239.059 111.465 239.213 112.025 239.213 112.678H237.841C237.841 112.351 237.762 112.043 237.603 111.754C237.454 111.465 237.216 111.227 236.889 111.04C236.563 110.853 236.138 110.76 235.615 110.76C235.111 110.76 234.691 110.849 234.355 111.026C234.029 111.203 233.781 111.437 233.613 111.726C233.455 112.006 233.375 112.309 233.375 112.636C233.375 113.009 233.52 113.341 233.809 113.63C234.099 113.919 234.528 114.087 235.097 114.134L236.231 114.232C237.277 114.325 238.103 114.615 238.709 115.1C239.325 115.576 239.633 116.225 239.633 117.046C239.633 117.671 239.465 118.227 239.129 118.712C238.793 119.197 238.322 119.575 237.715 119.846C237.109 120.117 236.404 120.252 235.601 120.252ZM242.356 120V109.78H248.264V111.012H243.728V114.19H247.97V115.422H243.728V118.768H248.404V120H242.356ZM254.776 120V109.724H257.898C259.148 109.724 260.096 110.018 260.74 110.606C261.393 111.185 261.72 111.973 261.72 112.972V113.196C261.72 114.185 261.393 114.974 260.74 115.562C260.096 116.15 259.148 116.444 257.898 116.444H256.148V120H254.776ZM258.15 110.928H256.148V115.24H258.15C258.868 115.24 259.41 115.035 259.774 114.624C260.138 114.204 260.32 113.691 260.32 113.084C260.32 112.468 260.138 111.955 259.774 111.544C259.41 111.133 258.868 110.928 258.15 110.928ZM264.151 120V109.724H267.497C268.244 109.724 268.897 109.836 269.457 110.06C270.017 110.284 270.451 110.629 270.759 111.096C271.067 111.563 271.221 112.165 271.221 112.902V113.126C271.221 113.929 271.034 114.573 270.661 115.058C270.297 115.534 269.798 115.875 269.163 116.08L272.131 120H270.465L267.707 116.304C267.642 116.304 267.572 116.304 267.497 116.304H265.523V120H264.151ZM267.749 110.928H265.523V115.086H267.749C268.384 115.086 268.888 114.89 269.261 114.498C269.634 114.106 269.821 113.611 269.821 113.014C269.821 112.407 269.634 111.908 269.261 111.516C268.888 111.124 268.384 110.928 267.749 110.928ZM278.788 120.252C277.873 120.252 277.084 120.089 276.422 119.762C275.759 119.435 275.213 119.006 274.784 118.474C274.354 117.942 274.032 117.373 273.818 116.766C273.612 116.159 273.51 115.576 273.51 115.016V114.708C273.51 114.101 273.617 113.49 273.832 112.874C274.046 112.258 274.373 111.698 274.812 111.194C275.25 110.681 275.796 110.27 276.45 109.962C277.112 109.654 277.892 109.5 278.788 109.5C279.684 109.5 280.458 109.654 281.112 109.962C281.774 110.27 282.325 110.681 282.764 111.194C283.202 111.698 283.529 112.258 283.744 112.874C283.958 113.49 284.066 114.101 284.066 114.708V115.016C284.066 115.576 283.958 116.159 283.744 116.766C283.538 117.373 283.221 117.942 282.792 118.474C282.362 119.006 281.816 119.435 281.154 119.762C280.491 120.089 279.702 120.252 278.788 120.252ZM278.788 118.992C279.385 118.992 279.922 118.88 280.398 118.656C280.883 118.432 281.294 118.129 281.63 117.746C281.966 117.354 282.222 116.915 282.4 116.43C282.577 115.935 282.666 115.417 282.666 114.876C282.666 114.12 282.507 113.434 282.19 112.818C281.882 112.193 281.438 111.693 280.86 111.32C280.281 110.947 279.59 110.76 278.788 110.76C277.994 110.76 277.304 110.947 276.716 111.32C276.137 111.693 275.689 112.193 275.372 112.818C275.064 113.434 274.91 114.12 274.91 114.876C274.91 115.417 274.998 115.935 275.176 116.43C275.353 116.915 275.61 117.354 275.946 117.746C276.282 118.129 276.688 118.432 277.164 118.656C277.649 118.88 278.19 118.992 278.788 118.992ZM286.743 120V109.78H288.563L291.587 116.598H291.811L294.821 109.78H296.655V120H295.283V111.53L292.483 117.886H290.803L288.003 111.558V120H286.743ZM304.62 120.252C303.705 120.252 302.916 120.089 302.254 119.762C301.591 119.435 301.045 119.006 300.616 118.474C300.186 117.942 299.864 117.373 299.65 116.766C299.444 116.159 299.342 115.576 299.342 115.016V114.708C299.342 114.101 299.449 113.49 299.664 112.874C299.878 112.258 300.205 111.698 300.644 111.194C301.082 110.681 301.628 110.27 302.282 109.962C302.944 109.654 303.724 109.5 304.62 109.5C305.516 109.5 306.29 109.654 306.944 109.962C307.606 110.27 308.157 110.681 308.596 111.194C309.034 111.698 309.361 112.258 309.576 112.874C309.79 113.49 309.898 114.101 309.898 114.708V115.016C309.898 115.576 309.79 116.159 309.576 116.766C309.37 117.373 309.053 117.942 308.624 118.474C308.194 119.006 307.648 119.435 306.986 119.762C306.323 120.089 305.534 120.252 304.62 120.252ZM304.62 118.992C305.217 118.992 305.754 118.88 306.23 118.656C306.715 118.432 307.126 118.129 307.462 117.746C307.798 117.354 308.054 116.915 308.232 116.43C308.409 115.935 308.498 115.417 308.498 114.876C308.498 114.12 308.339 113.434 308.022 112.818C307.714 112.193 307.27 111.693 306.692 111.32C306.113 110.947 305.422 110.76 304.62 110.76C303.826 110.76 303.136 110.947 302.548 111.32C301.969 111.693 301.521 112.193 301.204 112.818C300.896 113.434 300.742 114.12 300.742 114.876C300.742 115.417 300.83 115.935 301.008 116.43C301.185 116.915 301.442 117.354 301.778 117.746C302.114 118.129 302.52 118.432 302.996 118.656C303.481 118.88 304.022 118.992 304.62 118.992ZM320.619 120.252C319.685 120.252 318.887 120.089 318.225 119.762C317.571 119.435 317.044 119.011 316.643 118.488C316.241 117.965 315.947 117.401 315.761 116.794C315.574 116.178 315.481 115.585 315.481 115.016V114.708C315.481 114.092 315.574 113.476 315.761 112.86C315.957 112.244 316.255 111.684 316.657 111.18C317.058 110.676 317.581 110.27 318.225 109.962C318.869 109.654 319.639 109.5 320.535 109.5C321.897 109.5 322.971 109.85 323.755 110.55C324.548 111.241 325.01 112.165 325.141 113.322H323.741C323.619 112.454 323.26 111.81 322.663 111.39C322.075 110.97 321.365 110.76 320.535 110.76C319.732 110.76 319.055 110.947 318.505 111.32C317.963 111.684 317.557 112.179 317.287 112.804C317.016 113.42 316.881 114.111 316.881 114.876C316.881 115.604 317.016 116.281 317.287 116.906C317.567 117.531 317.982 118.035 318.533 118.418C319.093 118.801 319.788 118.992 320.619 118.992C321.496 118.992 322.233 118.773 322.831 118.334C323.428 117.895 323.792 117.261 323.923 116.43H325.323C325.229 117.13 324.991 117.769 324.609 118.348C324.235 118.927 323.713 119.389 323.041 119.734C322.378 120.079 321.571 120.252 320.619 120.252ZM332.307 120.252C331.393 120.252 330.604 120.089 329.941 119.762C329.279 119.435 328.733 119.006 328.303 118.474C327.874 117.942 327.552 117.373 327.337 116.766C327.132 116.159 327.029 115.576 327.029 115.016V114.708C327.029 114.101 327.137 113.49 327.351 112.874C327.566 112.258 327.893 111.698 328.331 111.194C328.77 110.681 329.316 110.27 329.969 109.962C330.632 109.654 331.411 109.5 332.307 109.5C333.203 109.5 333.978 109.654 334.631 109.962C335.294 110.27 335.845 110.681 336.283 111.194C336.722 111.698 337.049 112.258 337.263 112.874C337.478 113.49 337.585 114.101 337.585 114.708V115.016C337.585 115.576 337.478 116.159 337.263 116.766C337.058 117.373 336.741 117.942 336.311 118.474C335.882 119.006 335.336 119.435 334.673 119.762C334.011 120.089 333.222 120.252 332.307 120.252ZM332.307 118.992C332.905 118.992 333.441 118.88 333.917 118.656C334.403 118.432 334.813 118.129 335.149 117.746C335.485 117.354 335.742 116.915 335.919 116.43C336.097 115.935 336.185 115.417 336.185 114.876C336.185 114.12 336.027 113.434 335.709 112.818C335.401 112.193 334.958 111.693 334.379 111.32C333.801 110.947 333.11 110.76 332.307 110.76C331.514 110.76 330.823 110.947 330.235 111.32C329.657 111.693 329.209 112.193 328.891 112.818C328.583 113.434 328.429 114.12 328.429 114.876C328.429 115.417 328.518 115.935 328.695 116.43C328.873 116.915 329.129 117.354 329.465 117.746C329.801 118.129 330.207 118.432 330.683 118.656C331.169 118.88 331.71 118.992 332.307 118.992ZM340.263 120.056V109.724H343.763C344.687 109.724 345.489 109.869 346.171 110.158C346.852 110.438 347.417 110.821 347.865 111.306C348.322 111.782 348.663 112.319 348.887 112.916C349.111 113.504 349.223 114.106 349.223 114.722V115.03C349.223 115.627 349.111 116.225 348.887 116.822C348.663 117.419 348.322 117.961 347.865 118.446C347.417 118.931 346.852 119.323 346.171 119.622C345.489 119.911 344.687 120.056 343.763 120.056H340.263ZM343.903 110.984H341.635V118.796H343.903C344.724 118.796 345.424 118.623 346.003 118.278C346.591 117.933 347.039 117.466 347.347 116.878C347.664 116.281 347.823 115.613 347.823 114.876C347.823 114.111 347.664 113.439 347.347 112.86C347.039 112.272 346.591 111.815 346.003 111.488C345.424 111.152 344.724 110.984 343.903 110.984ZM351.757 120V109.78H357.665V111.012H353.129V114.19H357.371V115.422H353.129V118.768H357.805V120H351.757Z" fill="white"/>
</svg>
